<?xml version="1.0" encoding="UTF-8" standalone="no"?>
<!-- Created with Inkscape (http://www.inkscape.org/) -->

<svg
   xmlns:dc="http://purl.org/dc/elements/1.1/"
   xmlns:cc="http://creativecommons.org/ns#"
   xmlns:rdf="http://www.w3.org/1999/02/22-rdf-syntax-ns#"
   xmlns:svg="http://www.w3.org/2000/svg"
   xmlns="http://www.w3.org/2000/svg"
   xmlns:sodipodi="http://sodipodi.sourceforge.net/DTD/sodipodi-0.dtd"
   xmlns:inkscape="http://www.inkscape.org/namespaces/inkscape"
   width="36.992191"
   height="37.578129"
   id="svg2"
   version="1.1"
   inkscape:version="0.47pre4 r22446"
   sodipodi:docname="at.svg">
  <defs
     id="defs4">
    <inkscape:perspective
       sodipodi:type="inkscape:persp3d"
       inkscape:vp_x="0 : 526.18109 : 1"
       inkscape:vp_y="0 : 1000 : 0"
       inkscape:vp_z="744.09448 : 526.18109 : 1"
       inkscape:persp3d-origin="372.04724 : 350.78739 : 1"
       id="perspective10" />
  </defs>
  <sodipodi:namedview
     id="base"
     pagecolor="#ffffff"
     bordercolor="#666666"
     borderopacity="1.0"
     inkscape:pageopacity="0.0"
     inkscape:pageshadow="2"
     inkscape:zoom="13.332225"
     inkscape:cx="18.49609"
     inkscape:cy="18.789067"
     inkscape:document-units="px"
     inkscape:current-layer="layer1"
     showgrid="false"
     inkscape:window-width="1280"
     inkscape:window-height="751"
     inkscape:window-x="0"
     inkscape:window-y="25"
     inkscape:window-maximized="1" />
  <metadata
     id="metadata7">
    <rdf:RDF>
      <cc:Work
         rdf:about="">
        <dc:format>image/svg+xml</dc:format>
        <dc:type
           rdf:resource="http://purl.org/dc/dcmitype/StillImage" />
        <dc:title />
      </cc:Work>
    </rdf:RDF>
  </metadata>
  <g
     inkscape:label="Layer 1"
     inkscape:groupmode="layer"
     id="layer1"
     transform="translate(-142.16797,-262.5779)">
    <g
       style="font-size:40px;font-style:normal;font-weight:normal;fill:#000000;fill-opacity:1;stroke:none;font-family:Bitstream Vera Sans"
       id="flowRoot2816">
      <path
         d="m 162.67578,288.55446 c -0.84637,0.97657 -1.79689,1.76433 -2.85156,2.36328 -1.04169,0.58594 -2.08986,0.87891 -3.14453,0.87891 -1.15887,0 -2.28517,-0.33854 -3.37891,-1.01562 -1.09376,-0.67709 -1.98569,-1.71875 -2.67578,-3.125 -0.67709,-1.40625 -1.01563,-2.94922 -1.01563,-4.62891 0,-2.0703 0.52734,-4.14061 1.58204,-6.21094 1.06769,-2.08331 2.38931,-3.64581 3.96484,-4.6875 1.5755,-1.04164 3.10545,-1.56248 4.58984,-1.5625 1.1328,2e-5 2.21352,0.2995 3.24219,0.89844 1.02862,0.58596 1.91404,1.48439 2.65625,2.69531 l 0.66406,-3.02734 3.4961,0 -2.8125,13.10547 c -0.39065,1.82292 -0.58597,2.83203 -0.58594,3.02734 -3e-5,0.35157 0.13018,0.65756 0.39062,0.91797 0.27342,0.2474 0.59894,0.3711 0.97657,0.37109 0.69007,10e-6 1.59502,-0.39713 2.71484,-1.1914 1.48434,-1.04166 2.65622,-2.43489 3.51563,-4.17969 0.87236,-1.7578 1.30855,-3.5677 1.30859,-5.42969 -4e-5,-2.17446 -0.55993,-4.20571 -1.67969,-6.09375 -1.1068,-1.888 -2.76696,-3.39841 -4.98047,-4.53125 -2.20054,-1.13278 -4.63544,-1.69919 -7.30468,-1.69922 -3.0469,3e-5 -5.83335,0.71618 -8.35938,2.14844 -2.51303,1.41929 -4.46615,3.46356 -5.85937,6.13281 -1.38022,2.65627 -2.07032,5.50783 -2.07032,8.55469 0,3.19011 0.6901,5.9375 2.07032,8.24219 1.39322,2.30469 3.39842,4.0039 6.01562,5.09765 2.63019,1.10677 5.54035,1.66016 8.73047,1.66016 3.41143,0 6.2695,-0.57292 8.57422,-1.71875 2.30465,-1.14583 4.02991,-2.53906 5.17578,-4.17969 l 3.53516,0 c -0.6641,1.36719 -1.80343,2.76042 -3.41797,4.17969 -1.61462,1.41927 -3.53519,2.53906 -5.76172,3.35938 -2.22659,0.83332 -4.90888,1.24999 -8.04688,1.25 -2.89064,-10e-6 -5.55991,-0.37111 -8.00781,-1.11329 -2.43491,-0.74219 -4.51173,-1.86198 -6.23047,-3.35937 -1.71875,-1.48438 -3.01433,-3.19662 -3.88672,-5.13672 -1.09375,-2.46093 -1.64062,-5.11718 -1.64062,-7.96875 0,-3.17707 0.65104,-6.20441 1.95312,-9.08203 1.58854,-3.52862 3.84114,-6.23044 6.75782,-8.10547 2.92967,-1.87497 6.47784,-2.81247 10.64453,-2.8125 3.22914,3e-5 6.12627,0.66409 8.6914,1.99219 2.5781,1.31513 4.60934,3.28127 6.09375,5.89844 1.26299,2.25262 1.8945,4.70053 1.89453,7.34375 -3e-5,3.77605 -1.32816,7.12891 -3.98437,10.05859 -2.36982,2.63021 -4.96097,3.94531 -7.77344,3.94531 -0.89846,0 -1.62763,-0.13672 -2.1875,-0.41015 -0.5469,-0.27344 -0.95054,-0.66407 -1.21094,-1.17188 -0.16929,-0.32552 -0.29299,-0.88541 -0.37109,-1.67969 m -9.45312,-5.29297 c -2e-5,1.78387 0.42316,3.17058 1.26953,4.16016 0.84634,0.98959 1.81639,1.48438 2.91015,1.48438 0.72915,0 1.49738,-0.21484 2.30469,-0.64454 0.80727,-0.4427 1.5755,-1.09374 2.30469,-1.95312 0.74216,-0.85937 1.34763,-1.94661 1.8164,-3.26172 0.46873,-1.32811 0.70311,-2.65624 0.70313,-3.98437 -2e-5,-1.77082 -0.44273,-3.14452 -1.32813,-4.1211 -0.87241,-0.97654 -1.94012,-1.46482 -3.20312,-1.46484 -0.83335,2e-5 -1.62111,0.21486 -2.36328,0.64453 -0.72918,0.41668 -1.43882,1.09377 -2.12891,2.03125 -0.69012,0.93751 -1.2435,2.07684 -1.66015,3.41797 -0.41668,1.34116 -0.62502,2.57162 -0.625,3.6914"
         style="font-family:Arial;-inkscape-font-specification:Arial"
         id="path2825" />
    </g>
  </g>
</svg>
